<svg width="100" height="100" viewBox="0 0 100 100" fill="none" xmlns="http://www.w3.org/2000/svg">
<path d="M41.3538 55.3208L44.5997 44.5708L36.058 38.3H46.733L49.9997 27.4375L53.2705 38.3H63.9413L55.3747 44.5667L58.6247 55.3208L49.9997 48.6458L41.3538 55.3208ZM29.1663 89.425V61.9667C26.5275 59.3694 24.4788 56.3278 23.0205 52.8417C21.5622 49.3639 20.833 45.6389 20.833 41.6667C20.833 33.5361 23.6608 26.6431 29.3163 20.9875C34.9719 15.3319 41.8663 12.5028 49.9997 12.5C58.133 12.4972 65.0275 15.325 70.683 20.9833C76.3386 26.6417 79.1663 33.5361 79.1663 41.6667C79.1663 45.6361 78.4372 49.3625 76.9788 52.8458C75.5205 56.3292 73.4719 59.3667 70.833 61.9583V89.4167L49.9997 83.1667L29.1663 89.425ZM49.9997 66.6667C56.9441 66.6667 62.8469 64.2361 67.708 59.375C72.5691 54.5139 74.9997 48.6111 74.9997 41.6667C74.9997 34.7222 72.5691 28.8194 67.708 23.9583C62.8469 19.0972 56.9441 16.6667 49.9997 16.6667C43.0552 16.6667 37.1525 19.0972 32.2913 23.9583C27.4302 28.8194 24.9997 34.7222 24.9997 41.6667C24.9997 48.6111 27.4302 54.5139 32.2913 59.375C37.1525 64.2361 43.0552 66.6667 49.9997 66.6667ZM33.333 83.5167L49.9997 78.8458L66.6663 83.5167V65.475C64.3441 67.1833 61.7622 68.5028 58.9205 69.4333C56.0844 70.3667 53.1108 70.8333 49.9997 70.8333C46.8886 70.8333 43.915 70.3681 41.0788 69.4375C38.2427 68.507 35.6608 67.1861 33.333 65.475V83.5167Z" fill="black"/>
</svg>
