<svg width="264" height="264" viewBox="0 0 264 264" fill="none" xmlns="http://www.w3.org/2000/svg">
<path d="M132 22C111.578 22 91.9931 30.1125 77.5528 44.5528C63.1125 58.9931 55 78.5783 55 99C55 125.18 68.09 148.17 88 162.14V187C88 189.917 89.1589 192.715 91.2218 194.778C93.2847 196.841 96.0826 198 99 198H165C167.917 198 170.715 196.841 172.778 194.778C174.841 192.715 176 189.917 176 187V162.14C195.91 148.17 209 125.18 209 99C209 78.5783 200.888 58.9931 186.447 44.5528C172.007 30.1125 152.422 22 132 22ZM99 231C99 233.917 100.159 236.715 102.222 238.778C104.285 240.841 107.083 242 110 242H154C156.917 242 159.715 240.841 161.778 238.778C163.841 236.715 165 233.917 165 231V220H99V231Z" fill="#F8F9EB"/>
</svg>
