<svg width="264" height="264" viewBox="0 0 264 264" fill="none" xmlns="http://www.w3.org/2000/svg">
<path d="M132 22C134.694 22.0004 137.295 22.9895 139.308 24.7799C141.321 26.5702 142.608 29.0372 142.923 31.713L143 33V33.605C164.806 36.0497 185.183 45.6658 200.933 60.9439C216.683 76.222 226.914 96.2973 230.021 118.019L230.395 121H231C233.804 121.003 236.5 122.077 238.539 124.001C240.578 125.926 241.805 128.556 241.969 131.355C242.133 134.154 241.223 136.91 239.423 139.06C237.624 141.21 235.071 142.592 232.287 142.923L231 143H230.395C227.95 164.806 218.334 185.183 203.056 200.933C187.778 216.683 167.703 226.914 145.981 230.021L143 230.395V231C142.997 233.804 141.923 236.5 139.999 238.539C138.074 240.578 135.444 241.805 132.645 241.969C129.846 242.133 127.09 241.223 124.94 239.423C122.79 237.624 121.408 235.071 121.077 232.287L121 231V230.395C99.1939 227.95 78.8168 218.334 63.0669 203.056C47.3169 187.778 37.0857 167.703 33.979 145.981L33.605 143H33C30.1963 142.997 27.4997 141.923 25.461 139.999C23.4223 138.074 22.1954 135.444 22.0311 132.645C21.8668 129.846 22.7774 127.09 24.5769 124.94C26.3764 122.79 28.929 121.408 31.713 121.077L33 121H33.605C36.0498 99.1939 45.6658 78.8168 60.9439 63.0668C76.222 47.3169 96.2974 37.0857 118.019 33.979L121 33.605V33C121 30.0826 122.159 27.2847 124.222 25.2218C126.285 23.1589 129.083 22 132 22ZM132 77C117.413 77 103.424 82.7946 93.1091 93.1091C82.7946 103.424 77 117.413 77 132C77 146.587 82.7946 160.576 93.1091 170.891C103.424 181.205 117.413 187 132 187C146.587 187 160.576 181.205 170.891 170.891C181.205 160.576 187 146.587 187 132C187 117.413 181.205 103.424 170.891 93.1091C160.576 82.7946 146.587 77 132 77ZM132 99C140.752 99 149.146 102.477 155.335 108.665C161.523 114.854 165 123.248 165 132C165 140.752 161.523 149.146 155.335 155.335C149.146 161.523 140.752 165 132 165C123.248 165 114.854 161.523 108.665 155.335C102.477 149.146 99 140.752 99 132C99 123.248 102.477 114.854 108.665 108.665C114.854 102.477 123.248 99 132 99Z" fill="#F8F9EB"/>
</svg>
